:SAMPLES-PER-SECOND 30
:FULLY-SPECIFIED
:DEGREES
305
root  -3.13079 40.89 1.38175 173.682 -78.1278 -175.519
RightUpLeg  4.81496 -0.990742 -1.71055
RightLeg  -1.17094 -8.54625 -0.342743
RightFoot  -0.355025 -0.426445 4.40929
RightToes  -3.13006e-008 1.75238e-005 3.56266e-009
Spine  -8.69973 0.00378608 -1.32227
Spine1  16.7382 -0.426945 1.25335
HEad  -20.0375 25.0294 -0.284109
LeftShoulder1  2.43761 -3.74729 -27.5319
LeftArm  -91.2663 19.3615 -43.432
LeftForeArm  106.387 -72.4439 -139.76
LeftHand  -0.204337 2.37168 7.49851
RightShoulder  3.21149 5.79319 28.6024
RightArm  -14.0606 -23.9547 35.1768
RightForeArm  126.211 76.3017 131.558
RightHand  0.669995 4.05002 7.94839
LeftUpLeg  7.24616 1.7426 1.54322
LeftLeg  -1.84964 23.8754 -0.922541
LeftFoot  -2.50737 0.196519 -2.73185
LeftToes  4.76866e-008 1.46233e-008 1.30548e-009
306
root  -3.1253 40.8911 1.42333 173.935 -77.9733 -175.873
RightUpLeg  4.79747 -1.06592 -1.85032
RightLeg  -1.0184 -8.27368 -0.402414
RightFoot  -0.363241 -0.435776 4.53709
RightToes  -3.13006e-008 1.75238e-005 3.56266e-009
Spine  -8.84262 0.0788009 -0.820103
Spine1  17.0308 -0.196442 0.642779
HEad  -19.4655 24.6565 0.730632
LeftShoulder1  2.4283 -3.73081 -27.4779
LeftArm  -90.2236 17.6425 -44.3129
LeftForeArm  107.849 -72.2349 -140.475
LeftHand  -0.294784 1.39748 8.48688
RightShoulder  3.20662 5.7787 28.604
RightArm  -14.0417 -23.8515 36.0691
RightForeArm  125.725 76.3063 131.429
RightHand  0.687585 4.18987 8.03541
LeftUpLeg  7.41743 1.65444 1.38041
LeftLeg  -2.0132 24.145 -0.978214
LeftFoot  -2.49116 0.195905 -2.72055
LeftToes  4.76866e-008 1.46233e-008 1.30548e-009
307
root  -3.11405 40.8903 1.45243 174.003 -78.0164 -176.027
RightUpLeg  4.8339 -1.18607 -1.97045
RightLeg  -0.954549 -8.19379 -0.355997
RightFoot  -0.396109 -0.434872 4.5024
RightToes  -3.13006e-008 1.75238e-005 3.56266e-009
Spine  -8.91444 0.084235 -0.451643
Spine1  17.1146 -0.0808427 0.183875
HEad  -18.7831 24.1948 1.59922
LeftShoulder1  2.49149 -3.9001 -27.5697
LeftArm  -88.0571 15.5023 -44.691
LeftForeArm  106.693 -72.3029 -140.152
LeftHand  -0.220098 2.41765 8.29547
RightShoulder  3.26266 5.94728 28.5789
RightArm  -14.0802 -23.8734 36.6557
RightForeArm  125.506 76.4771 130.72
RightHand  0.59971 4.00538 7.12694
LeftUpLeg  7.4325 1.68892 1.33563
LeftLeg  -1.92623 24.1168 -1.00923
LeftFoot  -2.51259 0.187723 -2.59105
LeftToes  4.76866e-008 1.46233e-008 1.30548e-009
308
root  -3.09696 40.8898 1.47274 174.127 -78.2159 -176.284
RightUpLeg  4.93835 -1.29817 -2.09765
RightLeg  -0.901032 -8.24473 -0.342952
RightFoot  -0.398149 -0.436028 4.49677
RightToes  -3.13006e-008 1.75238e-005 3.56266e-009
Spine  -9.04799 0.116785 -0.1423
Spine1  17.2254 0.0739215 -0.270658
HEad  -17.7221 23.1691 2.30758
LeftShoulder1  2.542 -4.12781 -27.2159
LeftArm  -84.3108 12.5068 -45.2467
LeftForeArm  102.776 -72.7334 -138.512
LeftHand  -0.205215 2.99258 9.45646
RightShoulder  3.30752 6.10496 28.4731
RightArm  -14.3597 -23.8661 37.1226
RightForeArm  124.943 76.7225 129.602
RightHand  0.636173 4.08642 7.50458
LeftUpLeg  7.47306 1.65473 1.25478
LeftLeg  -1.82951 23.9495 -0.974135
LeftFoot  -2.4993 0.191914 -2.65357
LeftToes  4.76866e-008 1.46233e-008 1.30548e-009
309
root  -3.06884 40.892 1.48281 174.025 -78.8615 -176.374
RightUpLeg  5.19233 -1.44182 -2.20251
RightLeg  -0.909029 -8.6976 -0.292319
RightFoot  -0.400203 -0.440879 4.54634
RightToes  -3.13006e-008 1.75238e-005 3.56266e-009
Spine  -9.84916 0.0564468 -0.137979
Spine1  18.6281 0.0371382 -0.332403
HEad  -17.716 21.1153 2.7983
LeftShoulder1  2.56295 -4.28122 -26.8157
LeftArm  -78.9886 7.45253 -45.4649
LeftForeArm  95.5462 -73.9462 -133.9
LeftHand  -0.134926 4.12801 11.4973
RightShoulder  3.17863 5.88314 27.9015
RightArm  -14.9604 -23.1464 38.1796
RightForeArm  122.795 77.1512 127.215
RightHand  0.617206 4.06998 7.28505
LeftUpLeg  7.55776 1.62274 1.22352
LeftLeg  -1.82362 23.3563 -0.956459
LeftFoot  -2.44345 0.19114 -2.6384
LeftToes  4.76866e-008 1.46233e-008 1.30548e-009
310
root  -3.0296 40.8988 1.48156 174.363 -79.9804 -176.944
RightUpLeg  5.54965 -1.71537 -2.44391
RightLeg  -0.946898 -9.48243 -0.214622
RightFoot  -0.416523 -0.452997 4.7072
RightToes  -3.13006e-008 1.75238e-005 3.56266e-009
Spine  -10.704 -0.257597 -0.710447
Spine1  19.9855 -0.344464 0.0703489
HEad  -17.8177 18.0106 2.79381
LeftShoulder1  2.75762 -4.86457 -26.854
LeftArm  -73.5808 0.288491 -44.8872
LeftForeArm  83.6008 -76.2028 -122.194
LeftHand  0.0411039 5.91669 13.233
RightShoulder  3.12945 5.94962 27.1135
RightArm  -15.754 -22.775 39.2793
RightForeArm  120.046 77.6989 123.849
RightHand  0.634634 4.34369 7.27233
LeftUpLeg  7.70865 1.56851 1.14227
LeftLeg  -2.03505 22.3572 -1.08851
LeftFoot  -2.24732 0.185532 -2.54754
LeftToes  4.76866e-008 1.46233e-008 1.30548e-009
311
root  -2.97183 40.9058 1.46079 174.109 -81.8563 -176.959
RightUpLeg  6.07164 -1.91106 -2.52001
RightLeg  -1.05435 -11.1372 -0.134537
RightFoot  -0.406199 -0.460512 4.77128
RightToes  -3.13006e-008 1.75238e-005 3.56266e-009
Spine  -11.5567 -0.765534 -1.50371
Spine1  21.4357 -0.946036 0.571779
HEad  -17.733 13.5761 3.09639
LeftShoulder1  2.86971 -5.2769 -26.5764
LeftArm  -66.9451 -8.78905 -44.3691
LeftForeArm  59.1201 -78.3547 -94.0958
LeftHand  0.0720989 6.04024 15.5804
RightShoulder  3.07977 5.92231 26.6667
RightArm  -16.3505 -22.5208 39.6793
RightForeArm  116.756 78.0608 120.904
RightHand  0.533393 4.15975 6.19705
LeftUpLeg  7.59772 1.63798 1.24732
LeftLeg  -1.79375 20.4693 -1.07779
LeftFoot  -2.14001 0.165458 -2.23122
LeftToes  4.76866e-008 1.46233e-008 1.30548e-009
312
root  -2.89519 40.915 1.43228 173.774 -84.0172 -176.898
RightUpLeg  6.61267 -2.24836 -2.68597
RightLeg  -1.16436 -12.8768 0.0820084
RightFoot  -0.421859 -0.462252 4.77381
RightToes  -3.13006e-008 1.75238e-005 3.56266e-009
Spine  -11.5762 -1.50624 -2.34274
Spine1  21.5725 -1.62985 0.630928
HEad  -16.2796 8.7112 3.47955
LeftShoulder1  3.06585 -5.97567 -26.2236
LeftArm  -61.2475 -18.2674 -44.0669
LeftForeArm  25.8401 -76.6077 -58.9523
LeftHand  0.0770144 6.01898 16.4727
RightShoulder  3.07149 5.87785 26.7359
RightArm  -16.418 -22.5933 39.4693
RightForeArm  111.907 78.5519 116.258
RightHand  0.485288 3.99484 5.72963
LeftUpLeg  7.43917 1.67836 1.33855
LeftLeg  -1.59172 18.3232 -1.07692
LeftFoot  -1.9783 0.161879 -2.17097
LeftToes  4.76866e-008 1.46233e-008 1.30548e-009
